<svg xmlns="http://www.w3.org/2000/svg" viewBox="0 0 563.81 119.09"><defs><style>.a{fill:#fff;}.b{fill:#2298f8;}</style></defs><title>Disqus</title><path class="a" d="M1031.84,537.32a34.88,34.88,0,0,1,34.78-35.12c21.37-.36,35.71,10.94,39,30.8a32,32,0,0,1-3.56,20.31c-1.33,2.58-1.7,4.74,1,6.46,3.58,2.27,2.93,4.69.46,7.3a21.12,21.12,0,0,0-2,2.26c-2.84,4-5.71,5.79-9.53.87-2.15-2.76-4.88-1.12-7.29-.07a39.16,39.16,0,0,1-25.41,2.34C1042.24,568.35,1031.8,554.94,1031.84,537.32Zm20.25.51c0,9.85,6.33,17.1,15.43,17.49,1.69.07,4.17,1,4.94-1,.62-1.59-1.79-2.49-2.79-3.75s-3.85-2.18-3-4.15a22,22,0,0,1,8.23-9.15c2.57-1.66,4.28,1.57,6.24,2.87,1.07.71,1.8,2.46,3.25,1.87,1.63-.65,1.32-2.52,1.36-4,.23-9.41-8-18.29-16.86-18.34C1059.59,519.69,1052.1,527.74,1052.09,537.83Z" transform="translate(-684.35 -478.35)"/><path class="a" d="M857.07,537.68c0-9.5.09-19-.06-28.49-.06-4.18,1.39-6.16,5.81-5.95,10.47.51,21-1,31.42.93,18.12,3.39,28.7,15.68,28.76,33s-10.86,30.49-28.58,34c-11.06,2.18-22.26.91-33.4,1.08-3.46.06-3.95-2.38-3.95-5.11Zm20,.25c0,4,.08,8,0,12-.08,3.17,1.32,4.48,4.48,4.47,4.18,0,8.29-.08,12.19-1.9a13.49,13.49,0,0,0,8.31-12c1.26-15.8-8.6-20.17-21.63-19-2.6.23-3.32,1.79-3.32,4.06Q877.11,531.69,877.08,537.93Z" transform="translate(-684.35 -478.35)"/><path class="a" d="M1116,525.94c0-5.83.09-11.66,0-17.48-.07-3.48,1.07-5.27,4.86-5.21,18.64.31,15-2.37,15.37,14.6.16,8-.18,16,.15,24,.37,9.24,5.83,14.32,13.74,13.38,6-.7,9.81-4.77,9.91-11.14.17-11.32,0-22.64.1-34,0-6.34.49-6.85,6.85-6.79,15.94.14,14-2.11,14,14.11,0,9.8.55,19.62-.66,29.42-2,15.91-11,25-26.91,26.45a46.43,46.43,0,0,1-12.46-.23c-16-2.82-24.2-12.76-24.84-30.13-.21-5.66,0-11.32,0-17Z" transform="translate(-684.35 -478.35)"/><path class="a" d="M1218.44,502.32a40.69,40.69,0,0,1,24.6,6.49c2.68,1.72,3.42,3.3,1.29,6-2.37,3-3.89,7.14-6.89,9-3.62,2.27-6.72-2.37-10.31-3.25s-7-2.38-10.75-1.81c-2.21.34-4.42,1.19-4.8,3.69s1.91,3.36,3.73,4c3.12,1.12,6.38,1.89,9.56,2.87,3.5,1.07,7.06,2,10.44,3.37,7.26,3,12.42,7.76,12.81,16.2.43,9.1-2.8,16.28-11.08,20.74-12.54,6.76-36.31,3.68-46.76-5.94-1.68-1.54-2.18-2.79-.53-4.57,1.14-1.22,2.2-2.51,3.23-3.81,5.1-6.46,5.09-6.44,12.5-2.7,5.45,2.75,11.17,4.31,17.35,3.72,2.31-.22,4.41-.86,4.83-3.47s-1.52-3.6-3.42-4.3a69.87,69.87,0,0,0-7.65-2.25,74.82,74.82,0,0,1-13.32-4.25c-7.21-3.29-12-8.5-12.18-16.78s3.38-14.78,10.48-19.19A26.83,26.83,0,0,1,1218.44,502.32Z" transform="translate(-684.35 -478.35)"/><path class="a" d="M994.25,502.42a40.08,40.08,0,0,1,23.73,6.24c2.91,1.82,3.48,3.79,1.23,6.46a11.78,11.78,0,0,0-.83,1.25c-5.68,8.5-5.69,8.53-15,4.64a31.68,31.68,0,0,0-11.17-2.28c-2.46-.09-4.88.85-5.54,3.41-.77,3,1.86,4,4,4.78a81.67,81.67,0,0,0,8.2,2.16,60.71,60.71,0,0,1,14.13,4.79c7.09,3.68,10.67,9.53,10.48,17.34-.19,8.51-4.17,15.34-12,18.68-16.07,6.86-31.21,3.71-45.45-5.64-2.81-1.85-3-3.7-.54-5.92a3,3,0,0,0,.34-.37c7.21-8.58,7.21-8.6,17.24-4.07a28.72,28.72,0,0,0,13.11,2.51c2.69-.11,5.77,0,6.4-3.38s-2.39-4.35-4.92-5.17c-6.17-2-12.68-2.75-18.66-5.44-11.52-5.18-15.9-15.68-10.77-27.14,3.69-8.25,11-11.71,19.51-12.81A51.85,51.85,0,0,1,994.25,502.42Z" transform="translate(-684.35 -478.35)"/><path class="a" d="M954.18,537.76c0,9.67-.13,19.34.06,29,.07,4-1.31,5.72-5.48,5.65-17-.29-14.54,2-14.66-14-.12-16.16-.05-32.33,0-48.49,0-6,.58-6.64,6.56-6.59,15.84.12,13.29-1.94,13.53,13.46.05,3.5,0,7,0,10.5Z" transform="translate(-684.35 -478.35)"/><ellipse class="a" cx="60.8" cy="56.61" rx="44.37" ry="38.63"/><path class="b" d="M749.62,597.39c-13.33.46-25.11-2.57-35.5-9.91-4-2.83-7.79-3.94-12.56-2.94-4.55,1-9.22,1.33-13.83,2-3.12.45-4.06-.75-2.92-3.67,1.88-4.8,3.44-9.76,5.7-14.38,1.92-3.93,1.75-7.39.38-11.43a59.56,59.56,0,0,1,37.91-75.84c33-10.72,68.29,9.62,75.7,43.6,7.16,32.86-12.86,64.29-45.59,71.44A87.53,87.53,0,0,1,749.62,597.39Zm-25.5-59.68c0,8.15.07,16.3,0,24.46,0,3.29,1.12,4.94,4.63,4.87,7-.15,14,.18,21-.21C765.4,566,776.9,555.57,778,541.68c1.31-17.39-6.9-28.76-23.75-32-8.85-1.69-17.92-.65-26.89-.6-3,0-3.18,2.39-3.18,4.65Q724.12,525.72,724.12,537.71Z" transform="translate(-684.35 -478.35)"/><path class="b" d="M739.06,538c0-3.65,0-7.3,0-11,0-1.68.18-3.56,2.29-3.9,12.64-2.05,22.64,3.16,21.36,17.17-.9,9.91-12.14,16.24-21.47,12.65-2-.76-2.15-2.35-2.18-4C739,545.25,739.06,541.6,739.06,538Z" transform="translate(-684.35 -478.35)"/></svg>