<svg xmlns="http://www.w3.org/2000/svg" viewBox="0 0 2500 2428.06"><defs><style>.a{fill:#744c9e;}</style></defs><title>gatsby-disqus_purple</title><path class="a" d="M610.09,1223.3l676.77,676.76C915.21,1895.24,614.92,1595,610.09,1223.3Z" transform="translate(0 -0.18)"/><path class="a" d="M1982,1214.21c-.07,326.08-227.61,599-532.52,668.73L627.21,1060.67C697,755.76,969.86,528.22,1295.94,528.22c227.9,0,429.86,111.18,554.61,282.26l-95,83.79c-101.2-145.08-269.34-240-459.64-240-242.29,0-448.66,153.89-526.66,369.27l717.38,717.31c174.22-63.11,308.19-210.15,353.06-392.27H1542.43V1214.21Z" transform="translate(0 -0.18)"/><path class="a" d="M1295.6.18C630.36.18,91.08,543.76,91.08,1214.21a1216.8,1216.8,0,0,0,108.6,503.66L0,2210.7l516.86-70.61c210,179.58,481.65,288.15,778.74,288.15,665.19,0,1204.4-543.46,1204.4-1214S1960.77.18,1295.6.18Zm.34,2087.6c-482.49,0-873.57-391.08-873.57-873.57s391.08-873.57,873.57-873.57,873.57,391.08,873.57,873.57S1778.43,2087.78,1295.94,2087.78Z" transform="translate(0 -0.18)"/></svg>